# MagicaVoxel @ Ephtracy

# group
o 

# material
mtllib Backdrop.mtl
usemtl palette

# normals
vn -1 0 0
vn 1 0 0
vn 0 0 1
vn 0 0 -1
vn 0 -1 0
vn 0 1 0

# texcoords
vt 0.00585938 0.5
vt 0.0332031 0.5
vt 0.314453 0.5
vt 0.470703 0.5

# verts
v -2 0 0.2
v -2 0 -0.4
v -2 3.6 0.3
v -2 3.6 0.2
v -2 3.6 -0.4
v -2 4 0.3
v -2 4 -0.4
v -1.9 3.7 0.4
v -1.9 3.7 0.3
v -1.9 3.9 0.4
v -1.9 3.9 0.3
v -1.1 3.7 0.4
v -1.1 3.7 0.3
v -1.1 3.9 0.4
v -1.1 3.9 0.3
v -0.3 3.7 0.4
v -0.3 3.7 0.3
v -0.3 3.9 0.4
v -0.3 3.9 0.3
v 0.5 3.7 0.4
v 0.5 3.7 0.3
v 0.5 3.9 0.4
v 0.5 3.9 0.3
v 1.3 3.7 0.4
v 1.3 3.7 0.3
v 1.3 3.9 0.4
v 1.3 3.9 0.3
v -1.7 3.7 0.4
v -1.7 3.7 0.3
v -1.7 3.9 0.4
v -1.7 3.9 0.3
v -0.9 3.7 0.4
v -0.9 3.7 0.3
v -0.9 3.9 0.4
v -0.9 3.9 0.3
v -0.0999999 3.7 0.4
v -0.0999999 3.7 0.3
v -0.0999999 3.9 0.4
v -0.0999999 3.9 0.3
v 0.7 3.7 0.4
v 0.7 3.7 0.3
v 0.7 3.9 0.4
v 0.7 3.9 0.3
v 1.5 3.7 0.4
v 1.5 3.7 0.3
v 1.5 3.9 0.4
v 1.5 3.9 0.3
v 2 0 0.2
v 2 0 0.1
v 2 0 -0.4
v 2 3.6 0.3
v 2 3.6 0.2
v 2 3.6 0.1
v 2 3.6 -0.4
v 2 4 0.3
v 2 4 -0.4
v -1.9 3.7 0.4
v -1.9 3.9 0.4
v -1.7 3.7 0.4
v -1.7 3.9 0.4
v -1.1 3.7 0.4
v -1.1 3.9 0.4
v -0.9 3.7 0.4
v -0.9 3.9 0.4
v -0.3 3.7 0.4
v -0.3 3.9 0.4
v -0.0999999 3.7 0.4
v -0.0999999 3.9 0.4
v 0.5 3.7 0.4
v 0.5 3.9 0.4
v 0.7 3.7 0.4
v 0.7 3.9 0.4
v 1.3 3.7 0.4
v 1.3 3.9 0.4
v 1.5 3.7 0.4
v 1.5 3.9 0.4
v -2 3.6 0.3
v -2 4 0.3
v -1.9 3.7 0.3
v -1.9 3.9 0.3
v -1.7 3.7 0.3
v -1.7 3.9 0.3
v -1.1 3.7 0.3
v -1.1 3.9 0.3
v -0.9 3.7 0.3
v -0.9 3.9 0.3
v -0.3 3.7 0.3
v -0.3 3.9 0.3
v -0.0999999 3.7 0.3
v -0.0999999 3.9 0.3
v 0.5 3.7 0.3
v 0.5 3.9 0.3
v 0.7 3.7 0.3
v 0.7 3.9 0.3
v 1.3 3.7 0.3
v 1.3 3.9 0.3
v 1.5 3.7 0.3
v 1.5 3.9 0.3
v 2 3.6 0.3
v 2 4 0.3
v -2 0 0.2
v -2 3.6 0.2
v -1.6 0 0.2
v -1.6 3.6 0.2
v -1.2 0 0.2
v -1.2 3.6 0.2
v -0.8 0 0.2
v -0.8 3.6 0.2
v -0.4 0 0.2
v -0.4 3.6 0.2
v 2.38419e-007 0 0.2
v 2.38419e-007 3.6 0.2
v 0.4 0 0.2
v 0.4 3.6 0.2
v 0.8 0 0.2
v 0.8 3.6 0.2
v 1.2 0 0.2
v 1.2 3.6 0.2
v 1.6 0 0.2
v 1.6 3.6 0.2
v 2 0 0.2
v 2 3.6 0.2
v -2 0 -0.4
v -2 3.6 -0.4
v -2 4 -0.4
v 2 0 -0.4
v 2 3.6 -0.4
v 2 4 -0.4
v -2 0 0.2
v -1.6 0 0.2
v -1.2 0 0.2
v -0.8 0 0.2
v -0.4 0 0.2
v 2.38419e-007 0 0.2
v 0.4 0 0.2
v 0.8 0 0.2
v 1.2 0 0.2
v 1.6 0 0.2
v 2 0 0.2
v -1.6 0 0.1
v -1.2 0 0.1
v -0.8 0 0.1
v -0.4 0 0.1
v 2.38419e-007 0 0.1
v 0.4 0 0.1
v 0.8 0 0.1
v 1.2 0 0.1
v 1.6 0 0.1
v 2 0 0.1
v -2 0 -0.4
v 2 0 -0.4
v -2 3.6 0.3
v 2 3.6 0.3
v -2 3.6 0.2
v -1.6 3.6 0.2
v -1.2 3.6 0.2
v -0.8 3.6 0.2
v -0.4 3.6 0.2
v 2.38419e-007 3.6 0.2
v 0.4 3.6 0.2
v 0.8 3.6 0.2
v 1.2 3.6 0.2
v 1.6 3.6 0.2
v 2 3.6 0.2
v -1.9 3.7 0.4
v -1.7 3.7 0.4
v -1.1 3.7 0.4
v -0.9 3.7 0.4
v -0.3 3.7 0.4
v -0.0999999 3.7 0.4
v 0.5 3.7 0.4
v 0.7 3.7 0.4
v 1.3 3.7 0.4
v 1.5 3.7 0.4
v -1.9 3.7 0.3
v -1.7 3.7 0.3
v -1.1 3.7 0.3
v -0.9 3.7 0.3
v -0.3 3.7 0.3
v -0.0999999 3.7 0.3
v 0.5 3.7 0.3
v 0.7 3.7 0.3
v 1.3 3.7 0.3
v 1.5 3.7 0.3
v -1.9 3.9 0.4
v -1.7 3.9 0.4
v -1.1 3.9 0.4
v -0.9 3.9 0.4
v -0.3 3.9 0.4
v -0.0999999 3.9 0.4
v 0.5 3.9 0.4
v 0.7 3.9 0.4
v 1.3 3.9 0.4
v 1.5 3.9 0.4
v -1.9 3.9 0.3
v -1.7 3.9 0.3
v -1.1 3.9 0.3
v -0.9 3.9 0.3
v -0.3 3.9 0.3
v -0.0999999 3.9 0.3
v 0.5 3.9 0.3
v 0.7 3.9 0.3
v 1.3 3.9 0.3
v 1.5 3.9 0.3
v -2 4 0.3
v 2 4 0.3
v -2 4 -0.4
v 2 4 -0.4

# faces
f 4/2/1 2/2/1 1/2/1
f 5/2/1 2/2/1 4/2/1
f 6/4/1 4/4/1 3/4/1
f 6/4/1 5/4/1 4/4/1
f 7/4/1 5/4/1 6/4/1
f 10/1/1 9/1/1 8/1/1
f 11/1/1 9/1/1 10/1/1
f 14/1/1 13/1/1 12/1/1
f 15/1/1 13/1/1 14/1/1
f 18/1/1 17/1/1 16/1/1
f 19/1/1 17/1/1 18/1/1
f 22/1/1 21/1/1 20/1/1
f 23/1/1 21/1/1 22/1/1
f 26/1/1 25/1/1 24/1/1
f 27/1/1 25/1/1 26/1/1
f 28/1/2 29/1/2 30/1/2
f 30/1/2 29/1/2 31/1/2
f 32/1/2 33/1/2 34/1/2
f 34/1/2 33/1/2 35/1/2
f 36/1/2 37/1/2 38/1/2
f 38/1/2 37/1/2 39/1/2
f 40/1/2 41/1/2 42/1/2
f 42/1/2 41/1/2 43/1/2
f 44/1/2 45/1/2 46/1/2
f 46/1/2 45/1/2 47/1/2
f 48/3/2 49/3/2 52/3/2
f 49/2/2 50/2/2 53/2/2
f 52/3/2 49/3/2 53/3/2
f 53/2/2 50/2/2 54/2/2
f 51/4/2 52/4/2 55/4/2
f 52/4/2 53/4/2 55/4/2
f 53/4/2 54/4/2 55/4/2
f 55/4/2 54/4/2 56/4/2
f 59/1/3 58/1/3 57/1/3
f 60/1/3 58/1/3 59/1/3
f 63/1/3 62/1/3 61/1/3
f 64/1/3 62/1/3 63/1/3
f 67/1/3 66/1/3 65/1/3
f 68/1/3 66/1/3 67/1/3
f 71/1/3 70/1/3 69/1/3
f 72/1/3 70/1/3 71/1/3
f 75/1/3 74/1/3 73/1/3
f 76/1/3 74/1/3 75/1/3
f 79/4/3 78/4/3 77/4/3
f 80/4/3 78/4/3 79/4/3
f 81/4/3 79/4/3 77/4/3
f 82/4/3 78/4/3 80/4/3
f 83/4/3 81/4/3 77/4/3
f 83/4/3 82/4/3 81/4/3
f 84/4/3 78/4/3 82/4/3
f 84/4/3 82/4/3 83/4/3
f 85/4/3 83/4/3 77/4/3
f 86/4/3 78/4/3 84/4/3
f 87/4/3 85/4/3 77/4/3
f 87/4/3 86/4/3 85/4/3
f 88/4/3 78/4/3 86/4/3
f 88/4/3 86/4/3 87/4/3
f 89/4/3 87/4/3 77/4/3
f 90/4/3 78/4/3 88/4/3
f 91/4/3 89/4/3 77/4/3
f 91/4/3 90/4/3 89/4/3
f 92/4/3 78/4/3 90/4/3
f 92/4/3 90/4/3 91/4/3
f 93/4/3 91/4/3 77/4/3
f 94/4/3 78/4/3 92/4/3
f 95/4/3 93/4/3 77/4/3
f 95/4/3 94/4/3 93/4/3
f 96/4/3 78/4/3 94/4/3
f 96/4/3 94/4/3 95/4/3
f 97/4/3 95/4/3 77/4/3
f 98/4/3 78/4/3 96/4/3
f 99/4/3 97/4/3 77/4/3
f 99/4/3 98/4/3 97/4/3
f 100/4/3 78/4/3 98/4/3
f 100/4/3 98/4/3 99/4/3
f 103/2/3 102/2/3 101/2/3
f 104/2/3 102/2/3 103/2/3
f 105/3/3 104/3/3 103/3/3
f 106/3/3 104/3/3 105/3/3
f 107/2/3 106/2/3 105/2/3
f 108/2/3 106/2/3 107/2/3
f 109/3/3 108/3/3 107/3/3
f 110/3/3 108/3/3 109/3/3
f 111/2/3 110/2/3 109/2/3
f 112/2/3 110/2/3 111/2/3
f 113/3/3 112/3/3 111/3/3
f 114/3/3 112/3/3 113/3/3
f 115/2/3 114/2/3 113/2/3
f 116/2/3 114/2/3 115/2/3
f 117/3/3 116/3/3 115/3/3
f 118/3/3 116/3/3 117/3/3
f 119/2/3 118/2/3 117/2/3
f 120/2/3 118/2/3 119/2/3
f 121/3/3 120/3/3 119/3/3
f 122/3/3 120/3/3 121/3/3
f 123/2/4 124/2/4 126/2/4
f 124/4/4 125/4/4 127/4/4
f 126/2/4 124/2/4 127/2/4
f 127/4/4 125/4/4 128/4/4
f 140/2/5 130/2/5 129/2/5
f 140/3/5 131/3/5 130/3/5
f 141/2/5 132/2/5 131/2/5
f 141/3/5 131/3/5 140/3/5
f 142/3/5 133/3/5 132/3/5
f 142/2/5 132/2/5 141/2/5
f 143/2/5 134/2/5 133/2/5
f 143/3/5 133/3/5 142/3/5
f 144/3/5 135/3/5 134/3/5
f 144/2/5 134/2/5 143/2/5
f 145/2/5 136/2/5 135/2/5
f 145/3/5 135/3/5 144/3/5
f 146/3/5 137/3/5 136/3/5
f 146/2/5 136/2/5 145/2/5
f 147/2/5 138/2/5 137/2/5
f 147/3/5 137/3/5 146/3/5
f 148/3/5 139/3/5 138/3/5
f 148/2/5 138/2/5 147/2/5
f 149/3/5 139/3/5 148/3/5
f 150/2/5 147/2/5 146/2/5
f 150/2/5 146/2/5 145/2/5
f 150/2/5 149/2/5 148/2/5
f 150/2/5 148/2/5 147/2/5
f 150/2/5 145/2/5 144/2/5
f 150/2/5 144/2/5 143/2/5
f 150/2/5 143/2/5 142/2/5
f 150/2/5 142/2/5 141/2/5
f 150/2/5 141/2/5 140/2/5
f 150/2/5 140/2/5 129/2/5
f 151/2/5 149/2/5 150/2/5
f 154/4/5 153/4/5 152/4/5
f 155/4/5 153/4/5 154/4/5
f 156/4/5 153/4/5 155/4/5
f 157/4/5 153/4/5 156/4/5
f 158/4/5 153/4/5 157/4/5
f 159/4/5 153/4/5 158/4/5
f 160/4/5 153/4/5 159/4/5
f 161/4/5 153/4/5 160/4/5
f 162/4/5 153/4/5 161/4/5
f 163/4/5 153/4/5 162/4/5
f 164/4/5 153/4/5 163/4/5
f 175/1/5 166/1/5 165/1/5
f 176/1/5 166/1/5 175/1/5
f 177/1/5 168/1/5 167/1/5
f 178/1/5 168/1/5 177/1/5
f 179/1/5 170/1/5 169/1/5
f 180/1/5 170/1/5 179/1/5
f 181/1/5 172/1/5 171/1/5
f 182/1/5 172/1/5 181/1/5
f 183/1/5 174/1/5 173/1/5
f 184/1/5 174/1/5 183/1/5
f 185/1/6 186/1/6 195/1/6
f 195/1/6 186/1/6 196/1/6
f 187/1/6 188/1/6 197/1/6
f 197/1/6 188/1/6 198/1/6
f 189/1/6 190/1/6 199/1/6
f 199/1/6 190/1/6 200/1/6
f 191/1/6 192/1/6 201/1/6
f 201/1/6 192/1/6 202/1/6
f 193/1/6 194/1/6 203/1/6
f 203/1/6 194/1/6 204/1/6
f 205/4/6 206/4/6 207/4/6
f 207/4/6 206/4/6 208/4/6
