# MagicaVoxel @ Ephtracy

# group
o 

# material
mtllib CarnivalStand.mtl
usemtl palette

# normals
vn -1 0 0
vn 1 0 0
vn 0 0 1
vn 0 0 -1
vn 0 -1 0
vn 0 1 0

# texcoords
vt 0.00195313 0.5
vt 0.138672 0.5
vt 0.373047 0.5

# verts
v -2 0 0.3
v -2 0 -0.2
v -2 0.1 0.3
v -2 0.1 -0.2
v -2 1.2 0.3
v -2 1.2 -0.2
v -2 1.3 -0.2
v -2 1.3 -0.3
v -2 1.4 0.3
v -2 1.4 -0.3
v 2 0 0.3
v 2 0 -0.2
v 2 0.1 0.3
v 2 0.1 -0.2
v 2 1.2 0.3
v 2 1.2 -0.2
v 2 1.3 -0.2
v 2 1.3 -0.3
v 2 1.4 0.3
v 2 1.4 -0.3
v -2 0 0.3
v -2 0.1 0.3
v -2 1.2 0.3
v -2 1.4 0.3
v -1.5 0.1 0.3
v -1.5 1.2 0.3
v -1 0.1 0.3
v -1 1.2 0.3
v -0.5 0.1 0.3
v -0.5 1.2 0.3
v 2.38419e-007 0.1 0.3
v 2.38419e-007 1.2 0.3
v 0.5 0.1 0.3
v 0.5 1.2 0.3
v 1 0.1 0.3
v 1 1.2 0.3
v 1.5 0.1 0.3
v 1.5 1.2 0.3
v 2 0 0.3
v 2 0.1 0.3
v 2 1.2 0.3
v 2 1.4 0.3
v -2 0 -0.2
v -2 0.1 -0.2
v -2 1.2 -0.2
v -2 1.3 -0.2
v -1.5 0.1 -0.2
v -1.5 1.2 -0.2
v -1 0.1 -0.2
v -1 1.2 -0.2
v -0.5 0.1 -0.2
v -0.5 1.2 -0.2
v 2.38419e-007 0.1 -0.2
v 2.38419e-007 1.2 -0.2
v 0.5 0.1 -0.2
v 0.5 1.2 -0.2
v 1 0.1 -0.2
v 1 1.2 -0.2
v 1.5 0.1 -0.2
v 1.5 1.2 -0.2
v 2 0 -0.2
v 2 0.1 -0.2
v 2 1.2 -0.2
v 2 1.3 -0.2
v -2 1.3 -0.3
v -2 1.4 -0.3
v 2 1.3 -0.3
v 2 1.4 -0.3
v -2 0 0.3
v 2 0 0.3
v -2 0 -0.2
v 2 0 -0.2
v -2 1.3 -0.2
v 2 1.3 -0.2
v -2 1.3 -0.3
v 2 1.3 -0.3
v -2 1.4 0.3
v 2 1.4 0.3
v -2 1.4 -0.3
v 2 1.4 -0.3

# faces
f 3/3/1 2/3/1 1/3/1
f 4/3/1 2/3/1 3/3/1
f 5/2/1 4/2/1 3/2/1
f 6/2/1 4/2/1 5/2/1
f 7/3/1 6/3/1 5/3/1
f 9/3/1 7/3/1 5/3/1
f 9/3/1 8/3/1 7/3/1
f 10/3/1 8/3/1 9/3/1
f 11/3/2 12/3/2 13/3/2
f 13/3/2 12/3/2 14/3/2
f 13/1/2 14/1/2 15/1/2
f 15/1/2 14/1/2 16/1/2
f 15/3/2 16/3/2 17/3/2
f 15/3/2 17/3/2 19/3/2
f 17/3/2 18/3/2 19/3/2
f 19/3/2 18/3/2 20/3/2
f 25/3/3 22/3/3 21/3/3
f 25/2/3 23/2/3 22/2/3
f 26/3/3 24/3/3 23/3/3
f 26/2/3 23/2/3 25/2/3
f 27/3/3 25/3/3 21/3/3
f 27/1/3 26/1/3 25/1/3
f 28/3/3 24/3/3 26/3/3
f 28/1/3 26/1/3 27/1/3
f 29/3/3 27/3/3 21/3/3
f 29/2/3 28/2/3 27/2/3
f 30/3/3 24/3/3 28/3/3
f 30/2/3 28/2/3 29/2/3
f 31/3/3 29/3/3 21/3/3
f 31/1/3 30/1/3 29/1/3
f 32/3/3 24/3/3 30/3/3
f 32/1/3 30/1/3 31/1/3
f 33/3/3 31/3/3 21/3/3
f 33/2/3 32/2/3 31/2/3
f 34/3/3 24/3/3 32/3/3
f 34/2/3 32/2/3 33/2/3
f 35/3/3 33/3/3 21/3/3
f 35/1/3 34/1/3 33/1/3
f 36/3/3 24/3/3 34/3/3
f 36/1/3 34/1/3 35/1/3
f 37/3/3 35/3/3 21/3/3
f 37/2/3 36/2/3 35/2/3
f 38/3/3 24/3/3 36/3/3
f 38/2/3 36/2/3 37/2/3
f 39/3/3 37/3/3 21/3/3
f 40/1/3 38/1/3 37/1/3
f 40/3/3 37/3/3 39/3/3
f 41/3/3 24/3/3 38/3/3
f 41/1/3 38/1/3 40/1/3
f 42/3/3 24/3/3 41/3/3
f 43/3/4 44/3/4 47/3/4
f 44/2/4 45/2/4 47/2/4
f 45/3/4 46/3/4 48/3/4
f 47/2/4 45/2/4 48/2/4
f 43/3/4 47/3/4 49/3/4
f 47/1/4 48/1/4 49/1/4
f 48/3/4 46/3/4 50/3/4
f 49/1/4 48/1/4 50/1/4
f 43/3/4 49/3/4 51/3/4
f 49/2/4 50/2/4 51/2/4
f 50/3/4 46/3/4 52/3/4
f 51/2/4 50/2/4 52/2/4
f 43/3/4 51/3/4 53/3/4
f 51/1/4 52/1/4 53/1/4
f 52/3/4 46/3/4 54/3/4
f 53/1/4 52/1/4 54/1/4
f 43/3/4 53/3/4 55/3/4
f 53/2/4 54/2/4 55/2/4
f 54/3/4 46/3/4 56/3/4
f 55/2/4 54/2/4 56/2/4
f 43/3/4 55/3/4 57/3/4
f 55/1/4 56/1/4 57/1/4
f 56/3/4 46/3/4 58/3/4
f 57/1/4 56/1/4 58/1/4
f 43/3/4 57/3/4 59/3/4
f 57/2/4 58/2/4 59/2/4
f 58/3/4 46/3/4 60/3/4
f 59/2/4 58/2/4 60/2/4
f 43/3/4 59/3/4 61/3/4
f 59/1/4 60/1/4 62/1/4
f 61/3/4 59/3/4 62/3/4
f 60/3/4 46/3/4 63/3/4
f 62/1/4 60/1/4 63/1/4
f 63/3/4 46/3/4 64/3/4
f 65/3/4 66/3/4 67/3/4
f 67/3/4 66/3/4 68/3/4
f 71/3/5 70/3/5 69/3/5
f 72/3/5 70/3/5 71/3/5
f 75/3/5 74/3/5 73/3/5
f 76/3/5 74/3/5 75/3/5
f 77/3/6 78/3/6 79/3/6
f 79/3/6 78/3/6 80/3/6
