# MagicaVoxel @ Ephtracy

# group
o 

# material
mtllib Target.mtl
usemtl palette

# normals
vn -1 0 0
vn 1 0 0
vn 0 0 1
vn 0 0 -1
vn 0 -1 0
vn 0 1 0

# texcoords
vt 0.970703 0.5
vt 0.974609 0.5
vt 0.978516 0.5

# verts
v -0.6 0.4 0.1
v -0.6 0.4 0
v -0.6 0.8 0.1
v -0.6 0.8 0
v -0.5 0.2 0.1
v -0.5 0.2 0
v -0.5 0.4 0.1
v -0.5 0.4 0
v -0.5 0.8 0.1
v -0.5 0.8 0
v -0.5 1 0.1
v -0.5 1 0
v -0.4 0.1 0.1
v -0.4 0.1 0
v -0.4 0.2 0.1
v -0.4 0.2 0
v -0.4 1 0.1
v -0.4 1 0
v -0.4 1.1 0.1
v -0.4 1.1 0
v -0.2 0 0.1
v -0.2 0 0
v -0.2 0.1 0.1
v -0.2 0.1 0
v -0.2 1.1 0.1
v -0.2 1.1 0
v -0.2 1.2 0.1
v -0.2 1.2 0
v 0.2 0 0.1
v 0.2 0 0
v 0.2 0.1 0.1
v 0.2 0.1 0
v 0.2 1.1 0.1
v 0.2 1.1 0
v 0.2 1.2 0.1
v 0.2 1.2 0
v 0.4 0.1 0.1
v 0.4 0.1 0
v 0.4 0.2 0.1
v 0.4 0.2 0
v 0.4 1 0.1
v 0.4 1 0
v 0.4 1.1 0.1
v 0.4 1.1 0
v 0.5 0.2 0.1
v 0.5 0.2 0
v 0.5 0.4 0.1
v 0.5 0.4 0
v 0.5 0.8 0.1
v 0.5 0.8 0
v 0.5 1 0.1
v 0.5 1 0
v 0.6 0.4 0.1
v 0.6 0.4 0
v 0.6 0.8 0.1
v 0.6 0.8 0
v -0.6 0.4 0.1
v -0.6 0.8 0.1
v -0.5 0.2 0.1
v -0.5 0.4 0.1
v -0.5 0.8 0.1
v -0.5 1 0.1
v -0.4 0.1 0.1
v -0.4 0.2 0.1
v -0.4 0.4 0.1
v -0.4 0.8 0.1
v -0.4 1 0.1
v -0.4 1.1 0.1
v -0.3 0.3 0.1
v -0.3 0.4 0.1
v -0.3 0.8 0.1
v -0.3 0.9 0.1
v -0.2 0 0.1
v -0.2 0.1 0.1
v -0.2 0.2 0.1
v -0.2 0.3 0.1
v -0.2 0.5 0.1
v -0.2 0.7 0.1
v -0.2 0.9 0.1
v -0.2 1 0.1
v -0.2 1.1 0.1
v -0.2 1.2 0.1
v -0.1 0.4 0.1
v -0.1 0.5 0.1
v -0.1 0.7 0.1
v -0.1 0.8 0.1
v 0.1 0.4 0.1
v 0.1 0.5 0.1
v 0.1 0.7 0.1
v 0.1 0.8 0.1
v 0.2 0 0.1
v 0.2 0.1 0.1
v 0.2 0.2 0.1
v 0.2 0.3 0.1
v 0.2 0.5 0.1
v 0.2 0.7 0.1
v 0.2 0.9 0.1
v 0.2 1 0.1
v 0.2 1.1 0.1
v 0.2 1.2 0.1
v 0.3 0.3 0.1
v 0.3 0.4 0.1
v 0.3 0.8 0.1
v 0.3 0.9 0.1
v 0.4 0.1 0.1
v 0.4 0.2 0.1
v 0.4 0.4 0.1
v 0.4 0.8 0.1
v 0.4 1 0.1
v 0.4 1.1 0.1
v 0.5 0.2 0.1
v 0.5 0.4 0.1
v 0.5 0.8 0.1
v 0.5 1 0.1
v 0.6 0.4 0.1
v 0.6 0.8 0.1
v -0.6 0.4 0
v -0.6 0.8 0
v -0.5 0.2 0
v -0.5 0.4 0
v -0.5 0.8 0
v -0.5 1 0
v -0.4 0.1 0
v -0.4 0.2 0
v -0.4 0.4 0
v -0.4 0.8 0
v -0.4 1 0
v -0.4 1.1 0
v -0.3 0.3 0
v -0.3 0.4 0
v -0.3 0.8 0
v -0.3 0.9 0
v -0.2 0 0
v -0.2 0.1 0
v -0.2 0.2 0
v -0.2 0.3 0
v -0.2 0.5 0
v -0.2 0.7 0
v -0.2 0.9 0
v -0.2 1 0
v -0.2 1.1 0
v -0.2 1.2 0
v -0.1 0.4 0
v -0.1 0.5 0
v -0.1 0.7 0
v -0.1 0.8 0
v 0.1 0.4 0
v 0.1 0.5 0
v 0.1 0.7 0
v 0.1 0.8 0
v 0.2 0 0
v 0.2 0.1 0
v 0.2 0.2 0
v 0.2 0.3 0
v 0.2 0.5 0
v 0.2 0.7 0
v 0.2 0.9 0
v 0.2 1 0
v 0.2 1.1 0
v 0.2 1.2 0
v 0.3 0.3 0
v 0.3 0.4 0
v 0.3 0.8 0
v 0.3 0.9 0
v 0.4 0.1 0
v 0.4 0.2 0
v 0.4 0.4 0
v 0.4 0.8 0
v 0.4 1 0
v 0.4 1.1 0
v 0.5 0.2 0
v 0.5 0.4 0
v 0.5 0.8 0
v 0.5 1 0
v 0.6 0.4 0
v 0.6 0.8 0
v -0.2 0 0.1
v 0.2 0 0.1
v -0.2 0 0
v 0.2 0 0
v -0.4 0.1 0.1
v -0.2 0.1 0.1
v 0.2 0.1 0.1
v 0.4 0.1 0.1
v -0.4 0.1 0
v -0.2 0.1 0
v 0.2 0.1 0
v 0.4 0.1 0
v -0.5 0.2 0.1
v -0.4 0.2 0.1
v 0.4 0.2 0.1
v 0.5 0.2 0.1
v -0.5 0.2 0
v -0.4 0.2 0
v 0.4 0.2 0
v 0.5 0.2 0
v -0.6 0.4 0.1
v -0.5 0.4 0.1
v 0.5 0.4 0.1
v 0.6 0.4 0.1
v -0.6 0.4 0
v -0.5 0.4 0
v 0.5 0.4 0
v 0.6 0.4 0
v -0.6 0.8 0.1
v -0.5 0.8 0.1
v 0.5 0.8 0.1
v 0.6 0.8 0.1
v -0.6 0.8 0
v -0.5 0.8 0
v 0.5 0.8 0
v 0.6 0.8 0
v -0.5 1 0.1
v -0.4 1 0.1
v 0.4 1 0.1
v 0.5 1 0.1
v -0.5 1 0
v -0.4 1 0
v 0.4 1 0
v 0.5 1 0
v -0.4 1.1 0.1
v -0.2 1.1 0.1
v 0.2 1.1 0.1
v 0.4 1.1 0.1
v -0.4 1.1 0
v -0.2 1.1 0
v 0.2 1.1 0
v 0.4 1.1 0
v -0.2 1.2 0.1
v 0.2 1.2 0.1
v -0.2 1.2 0
v 0.2 1.2 0

# faces
f 3/1/1 2/1/1 1/1/1
f 4/1/1 2/1/1 3/1/1
f 7/1/1 6/1/1 5/1/1
f 8/1/1 6/1/1 7/1/1
f 11/1/1 10/1/1 9/1/1
f 12/1/1 10/1/1 11/1/1
f 15/1/1 14/1/1 13/1/1
f 16/1/1 14/1/1 15/1/1
f 19/1/1 18/1/1 17/1/1
f 20/1/1 18/1/1 19/1/1
f 23/1/1 22/1/1 21/1/1
f 24/1/1 22/1/1 23/1/1
f 27/1/1 26/1/1 25/1/1
f 28/1/1 26/1/1 27/1/1
f 29/1/2 30/1/2 31/1/2
f 31/1/2 30/1/2 32/1/2
f 33/1/2 34/1/2 35/1/2
f 35/1/2 34/1/2 36/1/2
f 37/1/2 38/1/2 39/1/2
f 39/1/2 38/1/2 40/1/2
f 41/1/2 42/1/2 43/1/2
f 43/1/2 42/1/2 44/1/2
f 45/1/2 46/1/2 47/1/2
f 47/1/2 46/1/2 48/1/2
f 49/1/2 50/1/2 51/1/2
f 51/1/2 50/1/2 52/1/2
f 53/1/2 54/1/2 55/1/2
f 55/1/2 54/1/2 56/1/2
f 60/1/3 58/1/3 57/1/3
f 61/1/3 58/1/3 60/1/3
f 64/1/3 60/1/3 59/1/3
f 64/1/3 62/1/3 61/1/3
f 64/1/3 61/1/3 60/1/3
f 65/1/3 62/1/3 64/1/3
f 66/1/3 62/1/3 65/1/3
f 67/1/3 62/1/3 66/1/3
f 69/1/3 64/1/3 63/1/3
f 69/1/3 65/1/3 64/1/3
f 70/3/3 66/3/3 65/3/3
f 70/1/3 65/1/3 69/1/3
f 71/1/3 68/1/3 67/1/3
f 71/3/3 66/3/3 70/3/3
f 71/1/3 67/1/3 66/1/3
f 72/1/3 68/1/3 71/1/3
f 74/1/3 69/1/3 63/1/3
f 75/1/3 69/1/3 74/1/3
f 76/3/3 70/3/3 69/3/3
f 76/1/3 69/1/3 75/1/3
f 76/3/3 71/3/3 70/3/3
f 76/3/3 72/3/3 71/3/3
f 77/3/3 72/3/3 76/3/3
f 78/3/3 72/3/3 77/3/3
f 79/1/3 68/1/3 72/1/3
f 79/3/3 72/3/3 78/3/3
f 80/1/3 68/1/3 79/1/3
f 81/1/3 68/1/3 80/1/3
f 83/3/3 76/3/3 75/3/3
f 83/3/3 77/3/3 76/3/3
f 84/2/3 78/2/3 77/2/3
f 84/3/3 77/3/3 83/3/3
f 85/3/3 79/3/3 78/3/3
f 85/2/3 78/2/3 84/2/3
f 85/3/3 80/3/3 79/3/3
f 86/3/3 80/3/3 85/3/3
f 87/3/3 83/3/3 75/3/3
f 87/2/3 84/2/3 83/2/3
f 87/2/3 86/2/3 85/2/3
f 87/2/3 85/2/3 84/2/3
f 88/2/3 86/2/3 87/2/3
f 89/2/3 86/2/3 88/2/3
f 90/3/3 80/3/3 86/3/3
f 90/2/3 86/2/3 89/2/3
f 91/1/3 75/1/3 74/1/3
f 91/1/3 74/1/3 73/1/3
f 92/1/3 75/1/3 91/1/3
f 93/3/3 87/3/3 75/3/3
f 93/1/3 75/1/3 92/1/3
f 93/3/3 88/3/3 87/3/3
f 94/3/3 88/3/3 93/3/3
f 95/2/3 89/2/3 88/2/3
f 95/3/3 88/3/3 94/3/3
f 96/3/3 90/3/3 89/3/3
f 96/2/3 89/2/3 95/2/3
f 97/3/3 80/3/3 90/3/3
f 97/3/3 90/3/3 96/3/3
f 98/1/3 82/1/3 81/1/3
f 98/3/3 80/3/3 97/3/3
f 98/1/3 81/1/3 80/1/3
f 99/1/3 82/1/3 98/1/3
f 100/1/3 82/1/3 99/1/3
f 101/3/3 96/3/3 95/3/3
f 101/1/3 94/1/3 93/1/3
f 101/3/3 95/3/3 94/3/3
f 101/3/3 97/3/3 96/3/3
f 101/1/3 93/1/3 92/1/3
f 102/3/3 97/3/3 101/3/3
f 103/3/3 97/3/3 102/3/3
f 104/1/3 99/1/3 98/1/3
f 104/3/3 97/3/3 103/3/3
f 104/1/3 98/1/3 97/1/3
f 105/1/3 102/1/3 101/1/3
f 105/1/3 101/1/3 92/1/3
f 106/1/3 102/1/3 105/1/3
f 107/3/3 103/3/3 102/3/3
f 107/1/3 102/1/3 106/1/3
f 108/1/3 104/1/3 103/1/3
f 108/3/3 103/3/3 107/3/3
f 109/1/3 99/1/3 104/1/3
f 109/1/3 104/1/3 108/1/3
f 110/1/3 99/1/3 109/1/3
f 111/1/3 108/1/3 107/1/3
f 111/1/3 109/1/3 108/1/3
f 111/1/3 107/1/3 106/1/3
f 112/1/3 109/1/3 111/1/3
f 113/1/3 109/1/3 112/1/3
f 114/1/3 109/1/3 113/1/3
f 115/1/3 113/1/3 112/1/3
f 116/1/3 113/1/3 115/1/3
f 117/1/4 118/1/4 120/1/4
f 120/1/4 118/1/4 121/1/4
f 119/1/4 120/1/4 124/1/4
f 121/1/4 122/1/4 124/1/4
f 120/1/4 121/1/4 124/1/4
f 124/1/4 122/1/4 125/1/4
f 125/1/4 122/1/4 126/1/4
f 126/1/4 122/1/4 127/1/4
f 123/1/4 124/1/4 129/1/4
f 124/1/4 125/1/4 129/1/4
f 125/3/4 126/3/4 130/3/4
f 129/1/4 125/1/4 130/1/4
f 127/1/4 128/1/4 131/1/4
f 130/3/4 126/3/4 131/3/4
f 126/1/4 127/1/4 131/1/4
f 131/1/4 128/1/4 132/1/4
f 123/1/4 129/1/4 134/1/4
f 134/1/4 129/1/4 135/1/4
f 129/3/4 130/3/4 136/3/4
f 135/1/4 129/1/4 136/1/4
f 130/3/4 131/3/4 136/3/4
f 131/3/4 132/3/4 136/3/4
f 136/3/4 132/3/4 137/3/4
f 137/3/4 132/3/4 138/3/4
f 132/1/4 128/1/4 139/1/4
f 138/3/4 132/3/4 139/3/4
f 139/1/4 128/1/4 140/1/4
f 140/1/4 128/1/4 141/1/4
f 135/3/4 136/3/4 143/3/4
f 136/3/4 137/3/4 143/3/4
f 137/2/4 138/2/4 144/2/4
f 143/3/4 137/3/4 144/3/4
f 138/3/4 139/3/4 145/3/4
f 144/2/4 138/2/4 145/2/4
f 139/3/4 140/3/4 145/3/4
f 145/3/4 140/3/4 146/3/4
f 135/3/4 143/3/4 147/3/4
f 143/2/4 144/2/4 147/2/4
f 145/2/4 146/2/4 147/2/4
f 144/2/4 145/2/4 147/2/4
f 147/2/4 146/2/4 148/2/4
f 148/2/4 146/2/4 149/2/4
f 146/3/4 140/3/4 150/3/4
f 149/2/4 146/2/4 150/2/4
f 134/1/4 135/1/4 151/1/4
f 133/1/4 134/1/4 151/1/4
f 151/1/4 135/1/4 152/1/4
f 135/3/4 147/3/4 153/3/4
f 152/1/4 135/1/4 153/1/4
f 147/3/4 148/3/4 153/3/4
f 153/3/4 148/3/4 154/3/4
f 148/2/4 149/2/4 155/2/4
f 154/3/4 148/3/4 155/3/4
f 149/3/4 150/3/4 156/3/4
f 155/2/4 149/2/4 156/2/4
f 150/3/4 140/3/4 157/3/4
f 156/3/4 150/3/4 157/3/4
f 141/1/4 142/1/4 158/1/4
f 157/3/4 140/3/4 158/3/4
f 140/1/4 141/1/4 158/1/4
f 158/1/4 142/1/4 159/1/4
f 159/1/4 142/1/4 160/1/4
f 155/3/4 156/3/4 161/3/4
f 153/1/4 154/1/4 161/1/4
f 154/3/4 155/3/4 161/3/4
f 156/3/4 157/3/4 161/3/4
f 152/1/4 153/1/4 161/1/4
f 161/3/4 157/3/4 162/3/4
f 162/3/4 157/3/4 163/3/4
f 158/1/4 159/1/4 164/1/4
f 163/3/4 157/3/4 164/3/4
f 157/1/4 158/1/4 164/1/4
f 161/1/4 162/1/4 165/1/4
f 152/1/4 161/1/4 165/1/4
f 165/1/4 162/1/4 166/1/4
f 162/3/4 163/3/4 167/3/4
f 166/1/4 162/1/4 167/1/4
f 163/1/4 164/1/4 168/1/4
f 167/3/4 163/3/4 168/3/4
f 164/1/4 159/1/4 169/1/4
f 168/1/4 164/1/4 169/1/4
f 169/1/4 159/1/4 170/1/4
f 167/1/4 168/1/4 171/1/4
f 168/1/4 169/1/4 171/1/4
f 166/1/4 167/1/4 171/1/4
f 171/1/4 169/1/4 172/1/4
f 172/1/4 169/1/4 173/1/4
f 173/1/4 169/1/4 174/1/4
f 172/1/4 173/1/4 175/1/4
f 175/1/4 173/1/4 176/1/4
f 179/1/5 178/1/5 177/1/5
f 180/1/5 178/1/5 179/1/5
f 185/1/5 182/1/5 181/1/5
f 186/1/5 182/1/5 185/1/5
f 187/1/5 184/1/5 183/1/5
f 188/1/5 184/1/5 187/1/5
f 193/1/5 190/1/5 189/1/5
f 194/1/5 190/1/5 193/1/5
f 195/1/5 192/1/5 191/1/5
f 196/1/5 192/1/5 195/1/5
f 201/1/5 198/1/5 197/1/5
f 202/1/5 198/1/5 201/1/5
f 203/1/5 200/1/5 199/1/5
f 204/1/5 200/1/5 203/1/5
f 205/1/6 206/1/6 209/1/6
f 209/1/6 206/1/6 210/1/6
f 207/1/6 208/1/6 211/1/6
f 211/1/6 208/1/6 212/1/6
f 213/1/6 214/1/6 217/1/6
f 217/1/6 214/1/6 218/1/6
f 215/1/6 216/1/6 219/1/6
f 219/1/6 216/1/6 220/1/6
f 221/1/6 222/1/6 225/1/6
f 225/1/6 222/1/6 226/1/6
f 223/1/6 224/1/6 227/1/6
f 227/1/6 224/1/6 228/1/6
f 229/1/6 230/1/6 231/1/6
f 231/1/6 230/1/6 232/1/6
